<?xml version="1.0" encoding="utf-8"?>
<svg xmlns="http://www.w3.org/2000/svg" xmlns:xlink="http://www.w3.org/1999/xlink" style="margin: auto; background: rgba(0, 0, 0, 0) none repeat scroll 0% 0%; display: block; shape-rendering: auto;" width="200px" height="200px" viewBox="0 0 100 100" preserveAspectRatio="xMidYMid">
<g transform="translate(50 50)">
<g>
<animateTransform attributeName="transform" type="rotate" values="0;51.42857142857143" keyTimes="0;1" dur="0.44052863436123346s" repeatCount="indefinite"></animateTransform><path d="M28.473672049807696 -5.5 L42.473672049807696 -5.5 L42.473672049807696 5.5 L28.473672049807696 5.5 A29 29 0 0 1 22.053117298099323 18.83241931978662 L22.053117298099323 18.83241931978662 L30.781974524121594 29.778060074339038 L22.181828216973265 36.63644789478511 L13.452970990950996 25.69080714023269 A29 29 0 0 1 -0.9738845806889814 28.983642780428692 L-0.9738845806889814 28.983642780428692 L-4.089177656077382 42.63263355097422 L-14.813384690077443 40.184903277454765 L-11.698091614689043 26.535912506909234 A29 29 0 0 1 -23.26753150659342 17.309592068840978 L-23.26753150659342 17.309592068840978 L-35.88109565722729 23.383964416486794 L-40.65381678752043 13.473306869560181 L-28.040252636886564 7.398934521914366 A29 29 0 0 1 -28.040252636886564 -7.398934521914359 L-28.040252636886564 -7.398934521914359 L-40.653816787520434 -13.473306869560172 L-35.88109565722729 -23.383964416486783 L-23.267531506593425 -17.30959206884097 A29 29 0 0 1 -11.698091614689037 -26.535912506909234 L-11.698091614689037 -26.535912506909234 L-14.813384690077442 -40.184903277454765 L-4.089177656077405 -42.63263355097422 L-0.9738845806890013 -28.983642780428692 A29 29 0 0 1 13.452970990951002 -25.690807140232685 L13.452970990951002 -25.690807140232685 L22.18182821697327 -36.63644789478511 L30.781974524121576 -29.778060074339052 L22.05311729809931 -18.832419319786634 A29 29 0 0 1 28.473672049807696 -5.499999999999995 M0 -19A19 19 0 1 0 0 19 A19 19 0 1 0 0 -19" fill="#e15b64"></path></g></g>
<!-- [ldio] generated by https://loading.io/ --></svg>